<svg data-v-0dd9719b="" version="1.0" xmlns="http://www.w3.org/2000/svg" xmlns:xlink="http://www.w3.org/1999/xlink" width="100%" height="100%" viewBox="0 0 340.000000 250.000000" preserveAspectRatio="xMidYMid meet" color-interpolation-filters="sRGB" style="margin: auto;"> <rect data-v-0dd9719b="" x="0" y="0" width="100%" height="100%" fill="#fff" fill-opacity="1" class="background"></rect> <rect data-v-0dd9719b="" x="0" y="0" width="100%" height="100%" fill="url(#watermark)" fill-opacity="1" class="watermarklayer"></rect> <g data-v-0dd9719b="" fill="#333" class="icon-text-wrapper icon-svg-group iconsvg" transform="translate(48.00704193197449,95.98421478271484)"><g class="iconsvg-imagesvg" transform="translate(0,0)"><g><rect fill="#333" fill-opacity="0" stroke-width="2" x="0" y="0" width="60" height="58.03156917363046" class="image-rect"></rect> <svg x="0" y="0" width="60" height="58.03156917363046" filtersec="colorsb1670572694" class="image-svg-svg primary" style="overflow: visible;"><svg xmlns="http://www.w3.org/2000/svg" viewBox="0.060344573110342026 0 271.8696594238281 262.95001220703125"><path d="M35.15 223.75c23.9 25.56 56.63 39.2 91.67 39.2A126.86 126.86 0 0 0 242.57 84.26a140.18 140.18 0 0 1-22.5 31.54A95.48 95.48 0 0 1 97.49 226.95c74.88-30 84.32-70.88 84.32-70.88-36.31 38.66-117 61-146.66 67.67" fill="#d3311b"></path><path d="M38.64 172.66c.11 0 56.09-10 124.36-52.64S271.93 0 271.93 0s-36.2 116.84-126.44 165.72c-37.32 20.22-67.34 31.42-86.64 37.38-11.3 3.71-33.53 9-33.57 9A126.82 126.82 0 0 1 216.49 46.46c.84.84 1.66 1.69 2.48 2.55-6.67 9.71-14.88 19.1-20.53 24.07-1.33-1.52-2.72-3-4.15-4.42a95.43 95.43 0 0 0-162.36 57.29c67.1 0 152.86-35.84 152.86-35.84s-20.94 17.51-55.53 35.88-95.07 32.85-95.14 32.86a94.78 94.78 0 0 0 4.52 13.8" fill="#005fad" fill-rule="evenodd"></path></svg></svg> <!----></g></g> <g transform="translate(67,0.4795360565185547)"><g data-gra="path-name" fill-rule="" class="tp-name iconsvg-namesvg" transform="translate(0,0)"><g transform="scale(1)"><g><path d="M41.89-18.18L41.89-18.18 22.41-18.18Q24.97-11.92 30.55-7.74L30.55-7.74Q36.13-3.6 43.52-1.48L43.52-1.48 43.42-0.99Q40.59-0.58 39.46 2.65L39.46 2.65Q25.61-3.55 21.46-18.18L21.46-18.18 15.12-18.18 15.12-2.34Q19.35-3.51 25.79-5.49L25.79-5.49 25.96-4.95Q21.11-1.62 13.09 2.92L13.09 2.92Q12.73 3.6 12.15 4L12.15 4 8.55-1.21Q9.9-2.02 10.26-2.48L10.26-2.48Q10.66-2.92 10.66-3.78L10.66-3.78 10.66-18.18 2.48-18.18 2.11-19.48 10.66-19.48 10.66-37.84 15.12-37.08 15.12-23.09Q20.07-25.96 24.88-29.65L24.88-29.65Q29.7-33.39 32.49-36.45L32.49-36.45 35.68-32.67Q31.95-29.65 26.37-26.73L26.37-26.73Q20.79-23.85 15.12-21.87L15.12-21.87 15.12-19.48 35.64-19.48Q35.68-22.95 39.42-22.95L39.42-22.95Q43.2-22.36 43.16-18.9L43.16-18.9Q42.98-18.18 41.89-18.18ZM72.13-11.07L72.13-37.89 76.32-37.35 76.32-12.78Q76.32-12.33 75.11-11.7L75.11-11.7Q73.94-11.07 72.81-11.07L72.81-11.07 72.13-11.07ZM64.71-29.79L64.71-29.79 69.03-28.08Q65.47-18.31 59.76-13.5L59.76-13.5 59.17-13.9Q62.91-20.52 64.71-29.79ZM82.03-17.68L82.03-17.68 85.63-14.45Q77.22 1.08 57.15 3.78L57.15 3.78 56.97 3.1Q75.33-2.16 82.03-17.68ZM47.38-8.69L47.38-9.58 49.45-9.58Q49.99-9.58 50.22-9.72 50.45-9.86 50.8-10.48L50.8-10.48Q51.88-12.2 61.56-30.6L61.56-30.6 62.28-30.33Q61.65-28.8 59.67-23.98L59.67-23.98Q57.73-19.17 56.48-16.02L56.48-16.02Q55.22-12.91 54.9-11.92L54.9-11.92Q54.05-9.45 54.05-7.83L54.05-7.83Q54.05-7.06 54.81-4.77L54.81-4.77Q55.62-2.52 55.53-0.45L55.53-0.45Q55.44 1.08 54.59 1.98 53.73 2.88 52.34 2.88L52.34 2.88Q50.67 2.88 50.27 0.67L50.27 0.67Q50.8-2.7 50.63-5.08L50.63-5.08Q50.49-7.51 49.68-8.01L49.68-8.01Q48.87-8.55 47.38-8.69L47.38-8.69ZM46.3-26.05L46.3-26.05 46.66-26.46Q52.47-26.05 54.09-23.22L54.09-23.22Q55.08-21.55 54-20.29L54-20.29Q52.97-19.04 51.21-19.89L51.21-19.89Q51.08-19.93 50.94-20.02L50.94-20.02Q50.45-21.55 49.09-23.22L49.09-23.22Q47.79-24.93 46.3-26.05ZM50.22-36.45L50.22-36.45 50.58-36.81Q56.7-36.27 58.45-33.34L58.45-33.34Q59.49-31.54 58.45-30.2L58.45-30.2Q57.42-28.89 55.62-29.7L55.62-29.7Q55.48-29.74 55.35-29.83L55.35-29.83Q54.77-31.54 53.28-33.39L53.28-33.39Q51.8-35.28 50.22-36.45ZM78.3-29.56L78.3-29.56 78.75-29.88Q85.77-27.54 87.88-23.27L87.88-23.27Q89.14-20.7 88.06-18.95L88.06-18.95Q87.07-17.37 85.32-18.09L85.32-18.09Q84.87-18.31 84.42-18.63L84.42-18.63Q84.06-21.29 82.26-24.3L82.26-24.3Q80.5-27.36 78.3-29.56ZM100.94-27.31L100.94-27.31 100.44-31.68 92.47-31.68 92.11-32.98 100.31-32.98 99.77-38.07 104-37.57 104.4-32.98 106.65-32.98Q106.65-35.95 109.75-35.95L109.75-35.95Q112.86-35.37 112.86-32.4L112.86-32.4Q112.72-31.68 111.69-31.68L111.69-31.68 104.53-31.68 104.94-28.44Q104.13-27.22 100.94-27.31ZM105.57-16.47L105.57-23.49 99.31-23.49 99.31-16.47 105.57-16.47ZM99.31-15.16L99.31-8.14 105.57-8.14 105.57-15.16 99.31-15.16ZM105.57-4.68L105.57-6.84 99.31-6.84 99.31-3.42Q99.31-3.24 98.91-2.92L98.91-2.92Q98.55-2.65 97.74-2.38L97.74-2.38Q96.93-2.16 96.03-2.16L96.03-2.16 95.36-2.16 95.36-24.79 105.12-24.79Q105.39-26.91 108.45-26.91L108.45-26.91Q111.51-25.88 111.24-23.76L111.24-23.76Q110.75-23.13 109.58-22.9L109.58-22.9 109.58-5.85Q109.48-5.54 108.31-5.08L108.31-5.08Q107.19-4.68 106.25-4.68L106.25-4.68 105.57-4.68ZM116.55-10.17L116.55-10.17 125.06-10.17 125.06-16.52 117-16.52 117-15.66Q117-12.46 116.55-10.17ZM125.06-17.82L125.06-23.89 117-23.89 117-17.82 125.06-17.82ZM113-25.2L124.6-25.2Q124.78-27.54 128.07-27.54L128.07-27.54Q131.31-26.41 131.13-24.07L131.13-24.07Q130.59-23.45 129.24-23.18L129.24-23.18 129.24-1.53Q129.24 0.99 128.07 2.21L128.07 2.21Q126.94 3.46 123.21 3.82L123.21 3.82Q122.98 1.57 122.13 0.81L122.13 0.81Q120.91-0.27 117.94-0.72L117.94-0.72 117.94-1.4Q122.98-1.03 124.02-1.03 125.06-1.03 125.06-2.02L125.06-2.02 125.06-8.87 116.28-8.87Q114.03-0.32 103.64 3.78L103.64 3.78 103.23 3.24Q106.2 1.4 108.18-0.77L108.18-0.77Q110.2-2.97 111.19-5.44L111.19-5.44Q112.23-7.92 112.59-10.26L112.59-10.26Q113-12.64 113-15.57L113-15.57 113-25.2ZM123.7-32.98L126.9-32.98Q126.9-35.95 129.96-35.95L129.96-35.95Q133.06-35.37 133.06-32.4L133.06-32.4Q132.93-31.68 131.94-31.68L131.94-31.68 123.48-31.68 122.89-28.08Q121.45-27.04 118.71-27.58L118.71-27.58 119.38-31.68 114.12-31.68 113.76-32.98 119.56-32.98 120.38-38.02 124.2-36.99 123.7-32.98ZM156.01-16.96L156.01-16.96 155.34-17.32Q158.85-26.19 160.6-38.12L160.6-38.12 165.01-36.49Q163.94-31.99 162.72-28.98L162.72-28.98 172.8-28.98Q173.16-31.23 176.35-31.23L176.35-31.23Q179.41-29.61 179.06-27.36L179.06-27.36Q178.69-27 177.3-26.86L177.3-26.86Q175.05-22.59 171.9-19.08L171.9-19.08 171.36-19.39Q172.39-23.22 173.12-27.68L173.12-27.68 162.18-27.68Q159.34-21.06 156.01-16.96ZM150.93-29.88L150.93-29.88 154.66-28.48Q153.5-22.72 152.06-18.86L152.06-18.86Q155.38-13.46 154.94-9.63L154.94-9.63Q154.66-7.42 153.31-7.29L153.31-7.29Q152.5-7.29 151.6-8.05L151.6-8.05Q151.25-10.98 150.03-14.22L150.03-14.22Q147.38-8.73 143.96-5.22L143.96-5.22 143.37-5.67Q146.34-10.26 148.54-17.95L148.54-17.95Q146.47-22.68 143.32-27.63L143.32-27.63 144.04-27.95Q147.42-25.02 149.63-22.23L149.63-22.23Q150.53-26.41 150.93-29.88ZM142.65-2.75L151.38-2.75Q151.47-5.8 154.89-5.8L154.89-5.8Q158.35-5.22 158.26-2.16L158.26-2.16Q158.13-1.44 157.05-1.44L157.05-1.44 143.01-1.44Q143.01 0.77 139.86 0.77L139.86 0.77Q136.66 0.27 136.66-1.93L136.66-1.93Q137.52-2.7 138.56-3.19L138.56-3.19 138.56-33.34 151.51-33.34Q151.56-36.41 154.89-36.41L154.89-36.41Q158.22-35.82 158.18-32.76L158.18-32.76Q158.04-32.04 156.96-32.04L156.96-32.04 142.65-32.04 142.65-2.75ZM163.66-25.43L167.72-24.12 167.63-21.96Q168.3-14.04 170.82-8.96L170.82-8.96Q173.38-3.87 178.97-0.81L178.97-0.81 178.88-0.27Q175.91 0.36 175.23 3.87L175.23 3.87Q168.53-1.35 167.13-16.83L167.13-16.83Q166.77-14.04 166.19-11.79L166.19-11.79Q165.65-9.54 164.56-7.11 163.49-4.68 161.95-2.75L161.95-2.75Q160.43-0.85 158.09 0.85L158.09 0.85Q155.75 2.61 152.69 3.87L152.69 3.87 152.19 3.24Q154.71 1.8 156.65-0.09 158.58-1.98 159.75-4.32L159.75-4.32Q160.97-6.66 161.73-8.91L161.73-8.91Q162.54-11.21 162.9-14.22L162.9-14.22Q163.31-17.28 163.44-19.66L163.44-19.66Q163.62-22.05 163.66-25.43L163.66-25.43Z" transform="translate(-2.109999895095825, 38.119998931884766)"></path></g> <!----> <!----> <!----> <!----> <!----> <!----> <!----></g></g> <g data-gra="path-slogan" fill-rule="" class="tp-slogan iconsvg-slogansvg" fill="#333" transform="translate(25.637954711914062,48.119998931884766)"><!----> <!----> <g transform="scale(1, 1)"><g transform="scale(1)"><path d="M8.06-6.05L8.06-6.05L6.94-6.05Q6.52-7.78 4.55-7.83L4.55-7.83Q1.83-7.69 1.73-4.36L1.73-4.36Q1.73-0.80 4.59-0.80L4.59-0.80Q6.56-0.84 7.03-3.19L7.03-3.19L8.16-3.19Q7.64 0.05 4.36 0.14L4.36 0.14Q0.61 0 0.52-4.31L0.52-4.31Q0.70-8.63 4.55-8.81L4.55-8.81Q7.59-8.72 8.06-6.05ZM10.69-5.06L15.19-5.06L15.19-8.58L16.36-8.58L16.36 0L15.19 0L15.19-3.98L10.69-3.98L10.69 0L9.52 0L9.52-8.58L10.69-8.58L10.69-5.06ZM23.81 0L22.97-2.48L19.50-2.48L18.61 0L17.44 0L20.67-8.58L21.98-8.58L25.08 0L23.81 0ZM21.23-7.31L19.88-3.52L22.55-3.52L21.28-7.31L21.23-7.31ZM27.52-8.58L31.83-1.64L31.83-8.58L32.95-8.58L32.95 0L31.64 0L27.28-6.94L27.23-6.94L27.23 0L26.11 0L26.11-8.58L27.52-8.58ZM41.16-3.61L38.53-3.61L38.53-4.59L42.28-4.59L42.28 0L41.53 0L41.25-1.08Q40.27 0.09 38.44 0.14L38.44 0.14Q36.70 0.14 35.77-0.75L35.77-0.75Q34.36-2.06 34.41-4.36L34.41-4.36Q34.73-8.63 38.48-8.81L38.48-8.81Q41.67-8.63 42.14-6L42.14-6L41.02-6Q40.55-7.78 38.44-7.83L38.44-7.83Q35.77-7.64 35.63-4.31L35.63-4.31Q35.63-0.75 38.48-0.75L38.48-0.75Q39.52-0.75 40.27-1.31L40.27-1.31Q41.20-2.06 41.16-3.61L41.16-3.61ZM50.34-6.09L50.34-6.09L49.27-6.09Q49.17-7.73 47.11-7.83L47.11-7.83Q45.19-7.78 45.19-6.33L45.19-6.33Q45.19-5.39 46.22-5.25L46.22-5.25L48.66-4.69Q50.58-4.22 50.58-2.34L50.58-2.34Q50.53 0.05 47.20 0.14L47.20 0.14Q45.38 0.14 44.63-0.61L44.63-0.61Q43.69-1.31 43.73-2.77L43.73-2.77L44.86-2.77Q44.91-0.80 47.20-0.75L47.20-0.75Q49.45-0.80 49.50-2.20L49.50-2.20Q49.69-3.38 47.63-3.75L47.63-3.75L45.84-4.13Q44.02-4.64 44.02-6.19L44.02-6.19Q44.16-8.72 47.02-8.81L47.02-8.81Q50.25-8.81 50.34-6.09ZM53.20-5.06L57.70-5.06L57.70-8.58L58.88-8.58L58.88 0L57.70 0L57.70-3.98L53.20-3.98L53.20 0L52.03 0L52.03-8.58L53.20-8.58L53.20-5.06ZM66.33 0L65.48-2.48L62.02-2.48L61.13 0L59.95 0L63.19-8.58L64.50-8.58L67.59 0L66.33 0ZM63.75-7.31L62.39-3.52L65.06-3.52L63.80-7.31L63.75-7.31ZM80.20-8.58L80.20 0L79.08 0L79.08-5.06Q79.08-5.77 79.08-7.22L79.08-7.22L76.64 0L75.47 0L73.08-7.22L73.03-7.22Q73.03-6.70 73.08-5.67L73.08-5.67Q73.08-5.16 73.08-5.06L73.08-5.06L73.08 0L71.91 0L71.91-8.58L73.59-8.58L76.08-1.31L78.52-8.58L80.20-8.58ZM83.20-1.03L88.36-1.03L88.36 0L82.03 0L82.03-8.58L88.27-8.58L88.27-7.59L83.20-7.59L83.20-4.92L87.89-4.92L87.89-3.89L83.20-3.89L83.20-1.03ZM91.27-8.58L95.58-1.64L95.58-8.58L96.70-8.58L96.70 0L95.39 0L91.03-6.94L90.98-6.94L90.98 0L89.86 0L89.86-8.58L91.27-8.58ZM104.91-3.61L102.28-3.61L102.28-4.59L106.03-4.59L106.03 0L105.28 0L105-1.08Q104.02 0.09 102.19 0.14L102.19 0.14Q100.45 0.14 99.52-0.75L99.52-0.75Q98.11-2.06 98.16-4.36L98.16-4.36Q98.48-8.63 102.23-8.81L102.23-8.81Q105.42-8.63 105.89-6L105.89-6L104.77-6Q104.30-7.78 102.19-7.83L102.19-7.83Q99.52-7.64 99.38-4.31L99.38-4.31Q99.38-0.75 102.23-0.75L102.23-0.75Q103.27-0.75 104.02-1.31L104.02-1.31Q104.95-2.06 104.91-3.61L104.91-3.61ZM108.52-5.53L107.63-5.53L107.63-8.58L108.52-8.58L108.52-5.53ZM116.86-4.27L116.86-4.27Q116.67-7.64 113.86-7.83L113.86-7.83Q111-7.69 110.86-4.27L110.86-4.27Q111-0.94 113.86-0.80L113.86-0.80Q116.67-0.98 116.86-4.27ZM118.03-4.27L118.03-4.27Q117.75 0 113.86 0.14L113.86 0.14Q109.92 0 109.64-4.27L109.64-4.27Q109.88-8.72 113.86-8.81L113.86-8.81Q117.75-8.67 118.03-4.27ZM125.06-3.19L125.06-8.58L126.23-8.58L126.23-3.05Q126.09 0.05 122.72 0.14L122.72 0.14Q119.58 0.05 119.44-2.86L119.44-2.86L119.44-8.58L120.61-8.58L120.61-3.19Q120.66-0.84 122.77-0.80L122.77-0.80Q125.06-0.84 125.06-3.19L125.06-3.19Z" transform="translate(-0.515625, 8.8125)"></path></g></g></g></g></g><defs v-gra="od"></defs></svg>